# xmcd CD database file
#
# Track frame offsets:
#	150
#	18348
#	38095
#	56443
#
# Disc length: 1069 seconds
#
# Revision: 0
# Processed by: cddbd v1.5PL3 Copyright (c) Steve Scherf et al.
# Submitted via: CDex 1.51
#
DISCID=26042b04
DTITLE=TOKIO - トランジスタGガール
DYEAR=2004
DGENRE=JPop
TTITLE0=トランジスタGガール
TTITLE1=花唄 (Acoustic version)
TTITLE2=トランジスタGガール (Backing Track)
TTITLE3=Julia (Piano version)
EXTD=YEAR: 2004
EXTT0=
EXTT1=
EXTT2=
EXTT3=
PLAYORDER=
